<?xml version="1.0" encoding="utf-8"?>
<!-- Generator: Adobe Illustrator 21.0.2, SVG Export Plug-In . SVG Version: 6.00 Build 0)  -->
<svg version="1.1" id="Layer_1" xmlns="http://www.w3.org/2000/svg" xmlns:xlink="http://www.w3.org/1999/xlink" x="0px" y="0px"
	 viewBox="0 0 438.9 100.6" enable-background="new 0 0 438.9 100.6" xml:space="preserve">
<g>
	<g>
		<path fill="#555D6A" d="M142,62c0.5,0.5,0.7,1.1,0.7,1.8c0,0.7-0.3,1.3-0.8,1.8c-4.4,3.8-10.1,5.9-16,5.9
			c-14.2,0-24.5-10.2-24.5-24.4c0-14.3,10.1-24.4,24.5-24.4c5.8,0,11.5,2.1,15.9,5.8c0.5,0.5,0.9,1.1,0.9,1.8c0,0.7-0.2,1.4-0.8,1.9
			l-0.5,0.5c-0.9,0.9-2.4,0.9-3.3,0.1c-3.3-2.8-7.7-4.3-12.2-4.3c-9.2,0-18.5,5.7-18.5,18.5c0,12.8,9.3,18.5,18.5,18.5
			c4.4,0,8.7-1.6,12.1-4.5c1-0.8,2.5-0.7,3.4,0.1L142,62z M188.6,29.7c4.3,4.7,6.1,11.5,5.3,19.6c0,0.4-0.4,0.7-0.8,0.7h-40.8
			c1.2,9.4,8.3,15.6,18,15.6c5.9,0,11.8-2.2,15.1-5.6c0.8-0.9,2.3-1,3.3-0.2l0.7,0.5c0.5,0.4,0.9,1,0.9,1.7c0.1,0.7-0.2,1.3-0.6,1.8
			c-4.4,4.8-11.9,7.8-19.3,7.8C156,71.6,146,61.6,146,47.1c0-14,10.4-24.6,24.3-24.6C177.8,22.5,184.3,25,188.6,29.7z M188.3,44.5
			c-0.4-10.2-7.1-16.3-18-16.3c-9.6,0-16.7,6.5-18,16.3H188.3z M239.8,61.3c-0.9-0.9-2.4-0.9-3.3-0.1c-3.4,2.9-7.7,4.5-12.1,4.5
			c-9.2,0-18.5-5.7-18.5-18.5c0-12.8,9.3-18.5,18.5-18.5c4.6,0,9,1.5,12.3,4.3c0.9,0.8,2.4,0.7,3.3-0.1l0.6-0.6
			c0.5-0.5,0.8-1.1,0.7-1.8c0-0.7-0.3-1.3-0.9-1.8c-4.5-3.8-10.2-5.9-16-5.9c-14.5,0-24.5,10-24.5,24.4c0,14.1,10.3,24.4,24.5,24.4
			c6.1,0,11.9-2.2,16.3-6.1c0.4-0.4,0.7-0.9,0.7-1.5c0-0.6-0.2-1.2-0.6-1.6L239.8,61.3z M293.8,47.2c0,14.4-10,24.5-24.3,24.5
			c-14.3,0-24.3-10.1-24.3-24.5c0-14.4,10.2-24.8,24.3-24.8C283.6,22.4,293.8,32.8,293.8,47.2z M287.8,47.2c0-11-7.7-19-18.3-19
			c-10.6,0-18.3,8-18.3,19c0,10.9,7.5,18.4,18.3,18.4C280.2,65.6,287.8,58.1,287.8,47.2z M303.5,6.1h-1.2c-1.3,0-2.4,1.1-2.4,2.4
			v60.1c0,1.3,1.1,2.4,2.4,2.4h1.2c1.3,0,2.4-1.1,2.4-2.4V8.5C306,7.1,304.9,6.1,303.5,6.1z"/>
		<path fill="#FCAF17" d="M344,66.8c0.3,0.6,0.3,1.3,0,1.9c-0.2,0.6-0.7,1.1-1.3,1.3c-2.7,1.2-5.2,1.7-7.5,1.7
			c-9.4,0-13.8-5-13.8-15.7V28.6h-7.4c-1.3,0-2.4-1.1-2.4-2.4v-0.5c0-1.3,1.1-2.4,2.4-2.4h7.4V12c0-1.3,0.9-2.3,2.2-2.4l1.1-0.1
			c0.7-0.1,1.4,0.2,1.9,0.6c0.5,0.5,0.8,1.1,0.8,1.8v11.3h13.3c1.3,0,2.4,1.1,2.4,2.4v0.5c0,1.3-1.1,2.4-2.4,2.4h-13.3V56
			c0,6.3,1.3,9.9,7.8,9.9c1.6,0,3.4-0.4,5.3-1.2c1.2-0.5,2.6,0.1,3.1,1.3L344,66.8z M386.4,29.7c4.3,4.7,6.1,11.5,5.3,19.6
			c0,0.4-0.4,0.7-0.8,0.7h-40.8c1.2,9.4,8.3,15.6,18,15.6c5.9,0,11.8-2.2,15.1-5.6c0.8-0.9,2.3-1,3.3-0.2l0.7,0.5
			c0.5,0.4,0.9,1,0.9,1.7c0,0.7-0.2,1.3-0.6,1.8c-4.4,4.8-11.9,7.8-19.3,7.8c-14.3,0-24.3-10.1-24.3-24.6c0-14,10.4-24.6,24.3-24.6
			C375.7,22.5,382.2,25,386.4,29.7z M386.1,44.5c-0.4-10.2-7.1-16.3-18-16.3c-9.6,0-16.7,6.5-18,16.3H386.1z M438.2,62.1l-0.8-0.8
			c-0.9-0.9-2.4-0.9-3.3-0.1c-3.4,2.9-7.7,4.5-12.1,4.5c-9.2,0-18.5-5.7-18.5-18.5c0-12.8,9.3-18.5,18.5-18.5c4.6,0,9,1.5,12.3,4.3
			c0.9,0.8,2.4,0.7,3.3-0.1l0.6-0.6c0.5-0.5,0.8-1.1,0.7-1.8c0-0.7-0.3-1.3-0.9-1.8c-4.5-3.8-10.2-5.9-16-5.9
			c-14.5,0-24.6,10-24.6,24.4c0,14.1,10.3,24.4,24.6,24.4c6,0,11.7-2.1,16.1-6c0.5-0.4,0.8-1,0.8-1.7
			C438.9,63.2,438.6,62.5,438.2,62.1z"/>
	</g>
	<g>
		<path fill="#555D6A" d="M42.2,94.2c-1.8,0-3.6-0.5-5.2-1.4L5.2,74.4C2,72.6,0,69.2,0,65.5V28.7c0-3.7,2-7.1,5.2-9L37,1.4
			c3.1-1.8,7.2-1.8,10.4,0l31.8,18.4c3.2,1.8,5.2,5.3,5.2,9l0,36.8c0,3.7-2,7.1-5.2,9L47.4,92.8C45.8,93.7,44,94.2,42.2,94.2z
			 M42.2,4.8c-1,0-1.9,0.3-2.8,0.7L7.6,23.9c-1.7,1-2.8,2.8-2.8,4.8v36.8c0,2,1.1,3.8,2.8,4.8l31.8,18.4c1.7,1,3.9,1,5.6,0
			l31.8-18.4c1.7-1,2.8-2.8,2.8-4.8l0-36.8c0-2-1.1-3.8-2.8-4.8L45,5.5C44.1,5,43.2,4.8,42.2,4.8z"/>
		<g>
			<path fill="#FCAF17" d="M42.2,71.7c-13.6,0-24.6-11-24.6-24.6c0-13.6,11-24.6,24.6-24.6c8.6,0,16.7,4.6,21.1,12
				c0.8,1.4,0.4,3.1-1,3.9c-1.4,0.8-3.1,0.4-3.9-1c-3.5-5.8-9.5-9.2-16.2-9.2c-10.4,0-18.9,8.5-18.9,18.9c0,10.4,8.5,18.9,18.9,18.9
				c6.7,0,12.8-3.5,16.2-9.2c0.8-1.3,2.6-1.8,3.9-1c1.3,0.8,1.8,2.6,1,3.9C58.9,67.1,50.8,71.7,42.2,71.7z"/>
		</g>
		<circle fill="#555D6A" cx="64" cy="47.1" r="4.9"/>
	</g>
	<g>
		<path fill="#555D6A" d="M105.4,91.4h9.6v1.2h-9.6v6.5h10.4v1.2h-11.6V83.8h11.4V85h-10.1V91.4z"/>
		<path fill="#555D6A" d="M126.6,83.8v15.3h9.3v1.2h-10.5V83.8H126.6z"/>
		<path fill="#555D6A" d="M171.1,100.3l-1.8-4h-9.8l-1.8,4h-1.4l7.4-16.5h1.4l7.4,16.5H171.1z M168.8,95.1l-4.4-10l-4.4,10H168.8z"
			/>
		<path fill="#555D6A" d="M182.8,83.8v15.3h9.3v1.2h-10.5V83.8H182.8z"/>
		<path fill="#555D6A" d="M201.2,100.3V83.8h1.2v16.5H201.2z"/>
		<path fill="#555D6A" d="M225.8,100.3l-1.8-4h-9.8l-1.8,4H211l7.4-16.5h1.4l7.4,16.5H225.8z M223.5,95.1l-4.4-10l-4.4,10H223.5z"/>
		<path fill="#555D6A" d="M250.3,91.9c0.1,4.2-2.6,8.4-8.3,8.4c-1.9,0-3.7,0-5.6,0V83.8c1.9,0,3.7,0,5.6,0
			C247.5,83.8,250.2,87.8,250.3,91.9z M237.6,85v14h4.3c4.9,0,7.1-3.7,7.1-7.2c-0.1-3.4-2.3-6.8-7.1-6.8H237.6z"/>
		<path fill="#555D6A" d="M275.9,92.1c0,4.3-2.8,8.5-8.3,8.5c-5.5,0-8.3-4.2-8.3-8.5c0-4.4,2.8-8.5,8.3-8.5
			C273.2,83.6,275.9,87.7,275.9,92.1z M260.6,92.1c0,3.7,2.4,7.3,7.1,7.3c4.7,0,7.1-3.6,7.1-7.3c0-3.8-2.4-7.3-7.1-7.3
			C262.9,84.8,260.6,88.2,260.6,92.1z"/>
		<path fill="#555D6A" d="M300,94.6v5.7h-1.3V83.8c2.4,0,4.8,0,7.2,0c7.1,0,7.1,10.8,0,10.8H300z M300,85v8.4h5.9
			c5.5,0,5.5-8.4,0-8.4H300z"/>
		<path fill="#555D6A" d="M333.9,100.3h-1.7l-5.7-6.2h-4.5v6.2h-1.3V83.8c2.4,0,4.8,0,7.2,0c3.6,0,5.4,2.6,5.4,5.1
			c0,2.7-1.7,5-5.3,5L333.9,100.3z M322.1,92.9h5.8c2.9,0,4.1-1.6,4.2-3.9c0-1.9-1.3-3.9-4-3.9h-6V92.9z"/>
		<path fill="#555D6A" d="M344,91.4h9.6v1.2H344v6.5h10.4v1.2h-11.6V83.8h11.4V85H344V91.4z"/>
		<path fill="#555D6A" d="M377.4,98c-1.6,1.6-3.8,2.5-6,2.5c-5.5,0-8.4-3.9-8.5-8.3c0-4.4,2.8-8.5,8.5-8.5c2.2,0,4.3,0.8,6,2.5
			l-0.9,0.8c-1.4-1.4-3.3-2.1-5.1-2.1c-4.8,0-7.3,3.4-7.2,7.3c0,3.9,2.5,7.2,7.2,7.2c1.9,0,3.7-0.7,5.2-2.1L377.4,98z"/>
		<path fill="#555D6A" d="M387.1,100.3V83.8h1.2v16.5H387.1z"/>
		<path fill="#555D6A" d="M409.8,87c-1.2-1.9-3.1-2.2-5-2.2c-1.9,0-5,0.7-5,3.3c0,2.1,2.3,2.6,5,3.1c3.2,0.6,6.5,1.2,6.5,4.7
			c0,3.7-3.8,4.6-6.5,4.6c-2.6,0-5.5-1.1-6.7-3.6l1.1-0.6c1,2,3.6,3,5.6,3c2,0,5.2-0.6,5.2-3.5c0-2.5-2.7-3-5.4-3.5
			c-3-0.6-6.1-1.2-6.1-4.2c-0.1-3.5,3.6-4.6,6.3-4.6c2.4,0,4.4,0.4,6,2.8L409.8,87z"/>
		<path fill="#555D6A" d="M436.6,92.1c0,4.3-2.8,8.5-8.3,8.5S420,96.4,420,92c0-4.4,2.7-8.5,8.3-8.5S436.6,87.7,436.6,92.1z
			 M421.2,92.1c0,3.7,2.4,7.3,7.1,7.3c4.7,0,7.1-3.6,7.1-7.3c0-3.8-2.4-7.3-7.1-7.3C423.6,84.8,421.2,88.2,421.2,92.1z"/>
	</g>
</g>
</svg>
